Coordinates
version=1
nRows=17
nColumns=33
inDegrees=yes

Units are S.I. units (second, meters, Newtons, ...)
Angles are in degrees.

endheader
time	ground_thorax_rot_x	ground_thorax_rot_y	ground_thorax_rot_z	ground_thorax_tx	ground_thorax_ty	ground_thorax_tz	clav_prot_r	clav_elev_r	scapula_abduction_r	scapula_elevation_r	scapula_upward_rot_r	scapula_winging_r	shoulder_elv_r	plane_of_elev_r	axial_rot_r	elbow_flexion_r	pro_sup_r	wrist_flex_r	wrist_dev_r	clav_prot_l	clav_elev_l	scapula_abduction_l	scapula_elevation_l	scapula_upward_rot_l	scapula_winging_l	shoulder_elv_l	plane_of_elev_l	axial_rot_l	elbow_flexion_l	pro_sup_l	wrist_flex_l	wrist_dev_l
      4.69000000	    -40.42907971	     -8.80929102	      7.24733734	   -194.65129464	    839.90303089	     -9.74748931	      9.32834360	    -45.00000000	     32.37734845	    -45.00000000	    -45.00000000	   2421.74971193	  -1732.24162010	     28.10958982	     89.79269822	     12.49137643	     30.82004568	     18.24885405	      7.69401951	     15.35612627	     38.48568792	    -35.04642871	    -45.00000000	    -45.00000000	  -1717.57051799	  -1900.25124240	    141.12802431	    156.44892944	   1089.78656391	     33.45503074	      9.21444650	    -21.91208957
      4.70000000	    -40.40850884	     -8.49373496	      7.29302660	   -195.76108513	    841.36475609	     -9.80731027	      9.00035574	    -45.00000000	     32.26870177	    -45.00000000	    -45.00000000	   2421.73098758	  -1732.23012793	     28.00440379	     89.35614990	     12.47248292	     30.75474207	     18.12976678	      7.42021376	     15.06862322	     38.91075834	    -35.21109894	    -45.00000000	    -45.00000000	  -1717.45671528	  -1900.22782349	    141.35631662	    155.60811372	   1090.02542411	     33.60705849	      9.11428507	    -21.90439079
      4.71000000	    -40.33491397	     -8.34819525	      7.23265449	   -196.62356117	    842.68374875	     -9.83648684	      9.19800684	    -45.00000000	     32.39519057	    -45.00000000	    -45.00000000	   2421.57881028	  -1732.21348581	     28.20799272	     89.27198894	     12.53492528	     30.68717280	     18.12152937	      7.49370234	     15.23588165	     38.51313299	    -35.09005842	    -45.00000000	    -45.00000000	  -1717.39074166	  -1900.18942531	    141.31530586	    155.63741916	   1090.02308830	     33.67033322	      8.95451072	    -21.87176777
      4.72000000	    -40.25141605	     -8.09938986	      7.03422916	   -197.24805186	    843.86086491	     -9.83609934	      9.15745360	    -45.00000000	     32.41602574	    -45.00000000	    -45.00000000	   2421.60943968	  -1732.10053241	     28.43278984	     89.05718223	     12.61129902	     30.56694304	     18.08961622	      7.36820899	     15.11997045	     38.65727101	    -34.91003455	    -45.00000000	    -45.00000000	  -1717.43739754	  -1900.19484909	    141.20823012	    155.46609752	   1089.90678739	     33.80605532	      8.99902778	    -21.87187249
      4.73000000	    -40.18774743	     -8.18460347	      7.34080305	   -197.65664566	    844.89389094	     -9.80340664	      9.25209726	    -45.00000000	     32.45070673	    -45.00000000	    -45.00000000	   2421.44466191	  -1732.02832139	     28.39440535	     88.90584547	     12.71404549	     30.45077232	     18.14976786	      7.50431058	     15.24528022	     38.25908429	    -34.87531034	    -45.00000000	    -45.00000000	  -1717.24991765	  -1900.21884112	    141.34213792	    155.51457780	   1090.07150558	     33.88666915	      8.75386309	    -21.82793216
      4.74000000	    -40.14485920	     -7.95731207	      7.24962531	   -197.87632570	    845.78605917	     -9.73741487	      9.30056660	    -45.00000000	     32.44014639	    -45.00000000	    -45.00000000	   2421.45687848	  -1732.07776777	     28.53776007	     88.66767542	     12.64822279	     30.29837225	     18.02973265	      7.27116701	     15.09301680	     38.62357794	    -34.79793671	    -45.00000000	    -45.00000000	  -1717.31499290	  -1900.03911719	    141.34007768	    155.26886737	   1090.16549076	     34.06440435	      8.79213507	    -21.87869887
      4.75000000	    -40.09260620	     -8.08018313	      7.46479154	   -197.93350564	    846.53651364	     -9.63779529	      9.32135618	    -45.00000000	     32.54553949	    -45.00000000	    -45.00000000	   2421.42756711	  -1731.92218476	     28.52345076	     88.59083557	     12.75804776	     30.19441296	     18.18176617	      7.55771562	     15.21105091	     38.09640615	    -34.81244583	    -45.00000000	    -45.00000000	  -1717.10790290	  -1900.22509546	    141.43687789	    155.22014239	   1090.18951864	     34.21938779	      8.51334204	    -21.78057840
      4.76000000	    -40.03213719	     -7.85042031	      7.36951702	   -197.85228181	    847.14715159	     -9.50662706	      9.37975751	    -45.00000000	     32.56540245	    -45.00000000	    -45.00000000	   2421.40992637	  -1731.97082999	     28.65788382	     88.42124852	     12.66238403	     30.05412066	     17.99299234	      7.17444285	     15.07382825	     38.66501366	    -34.73367465	    -45.00000000	    -45.00000000	  -1717.29142481	  -1899.95909815	    141.47406853	    154.94064603	   1090.36917134	     34.45640422	      8.57542751	    -21.84782711
      4.77000000	    -39.99532464	     -7.99342286	      7.60538781	   -197.65469629	    847.62733330	     -9.34609704	      9.40132618	    -45.00000000	     32.63382607	    -45.00000000	    -45.00000000	   2421.44100723	  -1731.83389812	     28.62360239	     88.44661424	     12.75311229	     30.01736650	     18.21786188	      7.60173086	     15.18571633	     37.94849604	    -34.81174153	    -45.00000000	    -45.00000000	  -1716.99809751	  -1900.19882466	    141.46647095	    154.93926591	   1090.31976884	     34.66226516	      8.25452264	    -21.71106049
      4.78000000	    -39.95512499	     -7.80857327	      7.56495164	   -197.35925310	    847.98778121	     -9.16239986	      9.42075194	    -45.00000000	     32.68698267	    -45.00000000	    -45.00000000	   2421.38664413	  -1731.87946458	     28.70636770	     88.28158371	     12.67270510	     29.92965607	     17.97809367	      7.09105064	     15.06844563	     38.68989402	    -34.72450137	    -45.00000000	    -45.00000000	  -1717.29493910	  -1899.93072277	    141.55003788	    154.65661021	   1090.51933721	     34.95464976	      8.32995959	    -21.77166721
      4.79000000	    -39.97420255	     -7.91650152	      7.71081700	   -196.98376884	    848.24537979	     -8.96338775	      9.48767214	    -45.00000000	     32.66155629	    -45.00000000	    -45.00000000	   2421.45951209	  -1731.80211078	     28.72763267	     88.36810346	     12.74354563	     29.99087229	     18.23288304	      7.57590483	     15.16633420	     37.89486686	    -34.82732887	    -45.00000000	    -45.00000000	  -1716.98018203	  -1900.10330949	    141.48713346	    154.64668708	   1090.43796682	     35.21240370	      8.02742731	    -21.64560973
      4.80000000	    -39.92547007	     -7.81747449	      7.75294062	   -196.54144162	    848.42200881	     -8.75777644	      9.45070993	    -45.00000000	     32.76044845	    -45.00000000	    -45.00000000	   2421.39439766	  -1731.82271917	     28.71541767	     88.21512749	     12.71214622	     30.01396598	     18.02356776	      7.09235992	     15.08089073	     38.59358029	    -34.75474327	    -45.00000000	    -45.00000000	  -1717.21508799	  -1899.89304136	    141.56523238	    154.43271919	   1090.59161701	     35.54846851	      8.05036502	    -21.65125722
      4.81000000	    -39.99561177	     -7.86052756	      7.78819420	   -196.04980667	    848.53590618	     -8.55593029	      9.55616089	    -45.00000000	     32.70193113	    -45.00000000	    -45.00000000	   2421.43564557	  -1731.74688797	     28.78063689	     88.28664254	     12.70911865	     30.19354841	     18.21999173	      7.48037669	     15.15964662	     37.93962139	    -34.87814285	    -45.00000000	    -45.00000000	  -1717.05282658	  -1900.06460249	    141.51983817	    154.37048693	   1090.62715907	     35.84295422	      7.82055717	    -21.60840601
      4.82000000	    -39.96343679	     -7.83830762	      7.83772077	   -195.51969748	    848.60684231	     -8.36483852	      9.48236013	    -45.00000000	     32.80179863	    -45.00000000	    -45.00000000	   2421.45040770	  -1731.75798156	     28.79345995	     88.20015271	     12.79732452	     30.38992864	     18.09894510	      7.11722003	     15.08827479	     38.46153681	    -34.80354319	    -45.00000000	    -45.00000000	  -1717.08320962	  -1899.81511845	    141.58230875	    154.24134912	   1090.69335011	     36.22891023	      7.78587500	    -21.56153468
      4.83000000	    -39.97129732	     -7.82386604	      7.87366882	   -194.96703528	    848.65045153	     -8.19128000	      9.56408501	    -45.00000000	     32.84884344	    -45.00000000	    -45.00000000	   2421.49206320	  -1731.73079326	     28.84442311	     88.19200216	     12.84045238	     30.69860019	     18.21308652	      7.28277740	     15.16835838	     38.09771024	    -34.93763277	    -45.00000000	    -45.00000000	  -1717.04957762	  -1899.89560996	    141.66885832	    154.16102921	   1090.78743926	     36.56812017	      7.63997666	    -21.58301819
      4.84000000	    -39.97716882	     -7.86167036	      7.82944762	   -194.40028655	    848.68096574	     -8.03698495	      9.49013206	    -45.00000000	     33.02213590	    -45.00000000	    -45.00000000	   2421.56360553	  -1731.68274718	     28.86823508	     88.13010841	     12.93635903	     31.02948897	     18.11618237	      6.96532503	     15.14236959	     38.61714304	    -34.80995251	    -45.00000000	    -45.00000000	  -1717.07288438	  -1899.72536574	    141.60296716	    154.03781476	   1090.91029195	     36.92624773	      7.58766798	    -21.53466205
      4.85000000	    -39.96589277	     -7.84413526	      7.90098513	   -193.83174384	    848.70982873	     -7.90267396	      9.58198300	    -45.00000000	     32.84431365	    -45.00000000	    -45.00000000	   2421.57375087	  -1731.62791271	     28.98207745	     88.16760242	     12.92837243	     31.54859487	     18.27142276	      7.25569650	     15.15927408	     38.02087342	    -35.01947430	    -45.00000000	    -45.00000000	  -1717.00092634	  -1899.86870548	    141.62530297	    154.01728459	   1090.92418103	     37.32737854	      7.44002467	    -21.56250568
